# xmcd
#
# Track frame offsets: 
#        150
#        13150
#        26145
#        37679
#        49588
#        63912
#        76965
#        90839
#        102527
#        115171
#        127157
#        139669
#        151618
#        163496
#        176446
#        188339
#        199992
#        212353
#        226171
#        240564
#        252010
#        262661
#        275784
#        287829
#        300439
#
# Disc length: 4150 seconds
#
# Revision: 1
# Processed by: cddbd v1.5.2PL0 Copyright (c) Steve Scherf et al.
# Submitted via: ExactAudioCopy v1.3
#
DISCID=44103419
DTITLE=Various Artist - Steelin' It:_The Steel Guitar Story_CD2
DYEAR=2008
DGENRE=Instrumental
TTITLE0=Milton Brown and His Brownies - Takin' Off
TTITLE1=Bill Mounce and the Sons of the South - I Found a New Baby
TTITLE2=Modern Mountaineers - Takin' Off
TTITLE3=Bob Dunn's Vagabonds - Stompin' at the Honky Tonk
TTITLE4=Cliff Bruner and His Boys - Kelly Swing
TTITLE5=Bill Boyd and His Cowboy Ramblers - Jitterbug Jive
TTITLE6=Sons of Dixie - Don't Ever Go Wrong
TTITLE7=Roy Newman and His Boys - Dust Off That Old Piano
TTITLE8=Bob Wills and His Texas Playboys - Stay a Little Longer
TTITLE9=Bob Wills and His Texas Playboys - Texas Playboy Rag
TTITLE10=Spade Cooley - Bogg's Boogie
TTITLE11=Johnny Bond and His Red River Boys - The Daughter of Jole Blon'
TTITLE12=Spade Cooley and HO - Spadella
TTITLE13=Hank Penny - Steel Guitar Stomp
TTITLE14=Bob Wills and His Texas Playboys - Steel Guitar Stomp
TTITLE15=Bob Wills and His Texas Playboys - Steel Guitar Rag
TTITLE16=Leon McAuliffe - Steel Guitar Rag
TTITLE17=Leon McAuliffe - Twin Guitar Boogie
TTITLE18=Leon McAuliffe - Take It Away, Leon!
TTITLE19=Shelley Lee Alley and His Alley Cats - Train Whistle Blues
TTITLE20=Shelley Lee Alley and His Alley Cats - I've Got the Blues #2
TTITLE21=Al Dexter - Down at the Roadside Inn
TTITLE22=Ted Daffan's Texans - Blue Steel Blues
TTITLE23=Ted Daffan's Texans - Weary Steel Blues
TTITLE24=Ted Daffan's Texans - Car Hop's Blues
EXTD=Compiled and annotated by Adam Komorowski.\nProduced for release 
EXTD=by Joop Visser Productions.\nDigital remastering by Peter Rynston
EXTD=at Tall Order Mastering, Crowborough GB-ESX.\n4CD: Proper Proper
EXTD=Box 142 (2008-04-14), UPC 805520021425.
EXTT0=
EXTT1=
EXTT2=
EXTT3=
EXTT4=
EXTT5=
EXTT6=
EXTT7=
EXTT8=
EXTT9=
EXTT10=
EXTT11=
EXTT12=
EXTT13=
EXTT14=
EXTT15=
EXTT16=
EXTT17=
EXTT18=
EXTT19=
EXTT20=
EXTT21=
EXTT22=
EXTT23=
EXTT24=
PLAYORDER=
